HIERARCHY
ROOT root
{
	OFFSET 0.000000 0.000000 0.000000
	CHANNELS 6 Xposition Yposition Zposition Zrotation Yrotation Xrotation
	JOINT lhip
	{
		OFFSET 0.058581 -0.082280 -0.017664
		CHANNELS 3 Zrotation Yrotation Xrotation
		JOINT lknee
		{
			OFFSET 0.043451 -0.386469 0.008037
			CHANNELS 3 Zrotation Yrotation Xrotation
			JOINT lankle
			{
				OFFSET -0.014790 -0.426874 -0.037428
				CHANNELS 3 Zrotation Yrotation Xrotation
				JOINT ltoe
				{
					OFFSET 0.041054 -0.060286 0.122042
					CHANNELS 3 Zrotation Yrotation Xrotation
					End Site
					{
						OFFSET 0.000000 0.000000 0.000000
					}
				}
			}
		}
	}
	JOINT rhip
	{
		OFFSET -0.060310 -0.090513 -0.013543
		CHANNELS 3 Zrotation Yrotation Xrotation
		JOINT rknee
		{
			OFFSET -0.043257 -0.383688 -0.004843
			CHANNELS 3 Zrotation Yrotation Xrotation
			JOINT rankle
			{
				OFFSET 0.019056 -0.420046 -0.034562
				CHANNELS 3 Zrotation Yrotation Xrotation
				JOINT rtoe
				{
					OFFSET -0.034840 -0.062106 0.130323
					CHANNELS 3 Zrotation Yrotation Xrotation
					End Site
					{
						OFFSET 0.000000 0.000000 0.000000
					}
				}
			}
		}
	}
	JOINT lowerback
	{
		OFFSET 0.004439 0.124404 -0.038385
		CHANNELS 3 Zrotation Yrotation Xrotation
		JOINT upperback
		{
			OFFSET 0.004488 0.137956 0.026820
			CHANNELS 3 Zrotation Yrotation Xrotation
			JOINT chest
			{
				OFFSET -0.002265 0.056032 0.002855
				CHANNELS 3 Zrotation Yrotation Xrotation
				JOINT lowerneck
				{
					OFFSET -0.013390 0.211636 -0.033468
					CHANNELS 3 Zrotation Yrotation Xrotation
					JOINT upperneck
					{
						OFFSET 0.010113 0.088937 0.050410
						CHANNELS 3 Zrotation Yrotation Xrotation
						End Site
						{
							OFFSET 0.000000 0.000000 0.000000
						}
					}
				}
				JOINT lclavicle
				{
					OFFSET 0.071702 0.114000 -0.018898
					CHANNELS 3 Zrotation Yrotation Xrotation
					JOINT lshoulder
					{
						OFFSET 0.122921 0.045205 -0.019046
						CHANNELS 3 Zrotation Yrotation Xrotation
						JOINT lelbow
						{
							OFFSET 0.255332 -0.015649 -0.022946
							CHANNELS 3 Zrotation Yrotation Xrotation
							JOINT lwrist
							{
								OFFSET 0.265709 0.012698 -0.007375
								CHANNELS 3 Zrotation Yrotation Xrotation
								End Site
								{
									OFFSET 0.000000 0.000000 0.000000
								}
							}
						}
					}
				}
				JOINT rclavicle
				{
					OFFSET -0.082954 0.112472 -0.023707
					CHANNELS 3 Zrotation Yrotation Xrotation
					JOINT rshoulder
					{
						OFFSET -0.113228 0.046853 -0.008472
						CHANNELS 3 Zrotation Yrotation Xrotation
						JOINT relbow
						{
							OFFSET -0.260127 -0.014369 -0.031269
							CHANNELS 3 Zrotation Yrotation Xrotation
							JOINT rwrist
							{
								OFFSET -0.269108 0.006794 -0.006027
								CHANNELS 3 Zrotation Yrotation Xrotation
								End Site
								{
									OFFSET 0.000000 0.000000 0.000000
								}
							}
						}
					}
				}
			}
		}
	}
}
MOTION
Frames: 10
Frame Time: 0.033333
0.558359 0.847283 0.988946 -2.899662 -1.756140 87.188080 4.902796 1.635124 3.658638 -3.547073 -1.339217 2.479668 -0.117921 2.994674 -8.908904 0.000000 -0.000000 0.000000 -3.829012 -1.492665 3.895092 -2.148577 2.623866 3.599946 2.144681 -1.480171 -11.627327 0.000000 -0.000000 0.000000 -4.339744 0.235629 1.317851 3.169718 -6.011429 6.625945 -1.825369 -2.905920 -0.593117 3.413857 -20.133146 -3.632966 -0.351469 -36.271553 14.013392 -21.794271 -6.837188 0.185204 -36.988284 -26.236543 15.699785 -171.915171 -62.885198 -157.816087 3.762070 -16.114736 0.466089 27.225436 8.281985 0.514950 48.230110 3.734987 24.339094 165.125465 78.864699 -169.950210 -5.108043 11.672106 -10.621955 
0.558737 0.846963 0.988682 -2.917876 -1.729693 87.153169 5.009729 1.856004 3.737087 -3.649446 -1.333537 2.544991 -0.138077 2.806016 -8.967050 0.000000 -0.000000 0.000000 -3.841201 -1.330047 3.993202 -2.102482 2.405306 3.641396 2.027397 -1.389136 -11.429981 0.000000 -0.000000 0.000000 -4.413074 0.193382 1.232731 3.238564 -6.072042 6.822389 -1.883063 -2.965368 -0.806259 3.729905 -20.045792 -3.605841 -0.525761 -36.438952 14.332835 -22.039178 -6.954591 0.349973 -36.321374 -26.119711 15.247694 -170.717450 -62.572103 -157.057025 3.545389 -15.983238 5.379596 27.702712 8.320709 0.565755 47.802001 3.526700 24.035080 164.515581 78.840715 -169.735221 -4.839717 11.840604 -10.069132 
0.559541 0.846424 0.988402 -2.796195 -1.693560 87.192488 4.975795 1.868364 3.708299 -3.597061 -1.376873 2.601106 -0.011487 2.739967 -9.155064 0.000000 -0.000000 0.000000 -3.832797 -1.413587 4.090642 -2.150757 2.484484 3.557132 2.150016 -1.505402 -11.600198 0.000000 -0.000000 0.000000 -4.395632 0.086350 1.093706 3.272498 -6.346321 6.730668 -1.945449 -2.767838 -0.788894 3.859410 -19.795289 -3.467140 -0.578488 -36.397474 14.476861 -22.216820 -7.140892 0.451597 -36.074249 -25.908668 15.185324 -169.138203 -62.977192 -157.909696 4.234281 -16.747218 7.971708 27.821698 8.148965 0.328341 47.915937 3.212560 23.711600 163.195468 78.868150 -169.878492 -5.361023 11.782322 -7.855486 
0.560181 0.846314 0.988025 -2.969752 -1.622003 87.211442 5.056748 1.998347 3.716207 -3.631618 -1.422969 2.592618 -0.047983 2.723945 -9.043542 0.000000 -0.000000 0.000000 -3.926842 -1.448058 3.960954 -1.970215 2.387088 3.741126 2.275688 -1.241176 -11.571976 0.000000 -0.000000 0.000000 -4.259864 0.196498 1.201719 3.350073 -6.384208 6.445788 -2.003162 -2.798662 -0.761834 3.930159 -19.670375 -3.644972 -0.954724 -36.527149 14.794594 -22.509707 -7.241441 0.362723 -35.998259 -25.767423 15.427607 -166.836699 -63.706102 -159.268392 5.784121 -16.974870 11.165105 28.319454 7.897044 0.224979 47.386280 3.086727 23.425648 161.515763 78.436694 -170.853791 -7.116484 12.083854 -6.104712 
0.560307 0.845953 0.987876 -3.174587 -1.638099 87.327987 5.129353 2.157515 3.575861 -3.784186 -1.238150 2.745768 0.017135 2.537555 -9.241783 0.000000 -0.000000 0.000000 -3.970091 -1.517771 3.787623 -1.957437 2.496106 3.809455 2.338339 -1.147247 -11.718131 0.000000 -0.000000 0.000000 -4.472889 0.492164 0.952637 3.568176 -6.235294 6.506749 -1.805365 -3.333975 -0.788459 3.745703 -19.423663 -3.825347 -1.129940 -36.348180 14.867387 -23.019106 -7.335232 0.570981 -35.616381 -25.353594 15.528487 -165.619763 -64.366499 -159.648637 7.367999 -18.731917 13.104805 28.384393 7.726317 0.136289 47.045317 3.259419 23.296339 158.745534 78.188688 -172.719643 -8.136580 12.828298 -4.648214 
0.561205 0.844061 0.988171 -2.847696 -1.455427 86.858860 5.249307 2.202851 4.095852 -3.690019 -1.491196 2.762675 0.083167 2.450849 -9.334711 0.000000 -0.000000 0.000000 -3.772524 -1.973560 4.529902 -2.104747 2.548001 3.636725 2.494949 -1.199217 -11.904127 0.000000 -0.000000 0.000000 -3.941929 0.299165 1.315481 3.509743 -6.740053 6.498983 -2.100620 -3.293747 -0.796882 3.668930 -18.970872 -3.930513 -1.112382 -35.923367 14.874862 -23.235944 -7.437267 0.378655 -36.228220 -24.958920 15.524582 -164.577187 -66.127021 -160.106572 11.013087 -20.203946 14.288871 28.487956 7.879771 0.200372 48.161453 2.900837 23.234714 161.750598 78.525868 -168.664099 -12.232401 13.559828 -3.035786 
0.561362 0.842980 0.988318 -2.955677 -1.406754 86.504112 5.275507 2.141524 4.650877 -3.374415 -2.345649 2.774104 -0.262041 2.452015 -9.645357 0.000000 -0.000000 0.000000 -3.661266 -1.926141 4.964639 -2.234251 2.872465 3.618122 2.520135 -1.360740 -11.784788 0.000000 -0.000000 0.000000 -3.781422 0.168645 1.796490 3.368429 -6.790301 5.956829 -2.210864 -3.090581 -0.402293 3.678710 -18.781507 -4.196158 -1.089913 -35.642110 15.257349 -23.258924 -7.510472 0.277036 -37.011833 -24.859992 15.689965 -164.145736 -67.165833 -160.513016 17.820714 -22.638296 13.583126 28.757114 7.879141 0.042289 48.770979 2.533300 23.338527 157.718058 79.133111 -171.317809 -18.057974 13.898197 1.524169 
0.561388 0.842670 0.987835 -3.326152 -1.571629 86.758768 5.098794 2.151029 4.409927 -3.523595 -1.767094 2.723239 -0.234962 2.492884 -9.471879 0.000000 -0.000000 0.000000 -3.786932 -1.863623 4.527554 -2.378871 2.897914 3.859276 2.567471 -0.950875 -11.643654 0.000000 -0.000000 0.000000 -4.105906 0.118769 1.290607 3.373597 -6.783086 6.260120 -2.102547 -3.149586 -0.449844 3.590747 -18.614558 -4.439711 -1.121737 -35.100527 15.310632 -23.865977 -7.109976 0.296541 -37.753057 -24.712652 16.197616 -166.778824 -67.267739 -158.373056 18.464090 -22.648377 12.972783 29.042512 7.833951 0.237693 48.275728 2.782479 23.664063 160.479833 78.830926 -169.298050 -15.333003 13.702146 -0.877961 
0.561883 0.841660 0.987771 -3.728381 -1.592897 86.724023 4.995183 2.152600 4.626777 -3.449037 -1.930128 2.674428 0.364233 2.849575 -9.565437 0.000000 -0.000000 0.000000 -3.850239 -1.810649 4.453978 -2.341819 3.453640 4.073349 2.547406 -1.165743 -11.924976 0.000000 -0.000000 0.000000 -4.024351 0.071373 1.085844 3.224891 -6.619266 6.196406 -2.090935 -2.975220 -0.282907 3.305378 -18.975195 -4.195160 -0.702148 -34.481753 15.001719 -24.113146 -6.844114 0.322474 -39.381380 -24.680583 16.914186 -168.930179 -67.318299 -157.899967 21.295837 -19.563766 9.906551 29.139656 7.677644 0.198203 48.063479 2.680015 23.941576 160.495458 78.472021 -169.725675 -16.076976 13.830936 -0.755045 
0.561665 0.841359 0.987806 -3.829094 -1.548272 86.883739 5.006572 1.985226 4.470235 -3.555681 -1.541321 2.648166 0.348593 3.147644 -9.550757 0.000000 -0.000000 0.000000 -3.766003 -1.801870 4.253101 -2.347391 3.568905 4.130006 2.394953 -1.244677 -11.955912 0.000000 -0.000000 0.000000 -4.012164 0.003465 0.723185 3.171663 -6.472201 6.083494 -1.970129 -3.026039 0.022797 3.355285 -19.161137 -4.316288 -0.831104 -33.614095 15.188347 -24.520707 -6.530443 0.266523 -40.524420 -24.544965 17.413893 -172.215025 -66.945967 -156.200079 22.036200 -17.517100 6.567813 29.235031 7.202653 0.195361 47.950815 2.752152 23.990265 161.002020 78.253550 -169.511869 -14.916562 13.678037 -0.505933 
